<?xml version="1.0" encoding="utf-8"?>
<!-- Generator: Adobe Illustrator 19.0.0, SVG Export Plug-In . SVG Version: 6.00 Build 0)  -->
<svg version="1.1" id="Layer_1" xmlns="http://www.w3.org/2000/svg" xmlns:xlink="http://www.w3.org/1999/xlink" x="0px" y="0px"
	 viewBox="0 0 1876.1 584" style="enable-background:new 0 0 1876.1 584;" xml:space="preserve">
<style type="text/css">
	.st0{fill:#3A76BB;}
	.st1{fill:#FFFFFF;}
</style>
<g id="XMLID_102_">
	<g id="XMLID_54_">
		<path id="XMLID_27_" class="st0" d="M549,584H35c-19.3,0-35-15.8-35-35V35C0,15.8,15.8,0,35,0h514c19.3,0,35,15.8,35,35v514
			C584,568.3,568.3,584,549,584z"/>
		<g id="XMLID_53_">
			<path id="XMLID_51_" class="st1" d="M552.1,340.9c0,0-42.1-176.6-226.1-212.2C326,128.7,493.1,133.3,552.1,340.9z"/>
			<path id="XMLID_50_" class="st1" d="M544.6,411.4c0,0-61-38.2-120.7,22.1C423.9,433.4,476.8,362,544.6,411.4z"/>
			<path id="XMLID_49_" class="st1" d="M394.4,206c0,0,0.7,107.7-116.6,110.9C277.8,316.9,399.9,324.4,394.4,206z"/>
			<path id="XMLID_48_" class="st1" d="M412,195.6c0,0-83.1-54.6-128.6,24.4C283.4,220,303.1,127.5,412,195.6z"/>
			<path id="XMLID_47_" class="st1" d="M478.4,261.5c0,0-22.9,121.6-207.8,117.2C270.5,378.7,454,403.9,478.4,261.5z"/>
			<path id="XMLID_46_" class="st1" d="M508.2,187.8c0,0-90.2-22.3-82.8,101.1C425.4,288.9,412.2,160.3,508.2,187.8z"/>
			<path id="XMLID_45_" class="st1" d="M305.1,125.3c0,0-280.7,25.6-247.3,262.1C57.8,387.5-26.8,164.4,305.1,125.3z"/>
			<path id="XMLID_44_" class="st1" d="M406.1,419.5c0,0-269.7,91.3-223.9-23.3C182.3,396.2,96.9,521,406.1,419.5z"/>
			<path id="XMLID_43_" class="st1" d="M336.2,98.6c0,0-157.5,87.7-44.2,245.5C292,344.1,154.5,202.9,336.2,98.6z"/>
			<path id="XMLID_42_" class="st1" d="M494.6,419.5c0,0,64.1-154.3-85.4-106.6C409.3,312.9,562.1,239.7,494.6,419.5z"/>
			<path id="XMLID_41_" class="st1" d="M494.6,273.7c0,0-188.1-162.2-380.2,15.2C114.5,288.9,289,103.2,494.6,273.7z"/>
			<path id="XMLID_40_" class="st1" d="M424.8,447c0,0-92.9,13.7-144.8-75.8C280,371.2,312.6,473.1,424.8,447z"/>
			<path id="XMLID_39_" class="st1" d="M218.7,380.4c0,0-182.5,129.7-186.6-99.4C32.2,281,18.7,520.3,218.7,380.4z"/>
			<path id="XMLID_38_" class="st1" d="M270.5,76.6c0,0-273.9,231.8,7.2,430.8C277.8,507.4,19.2,342.8,270.5,76.6z"/>
			<path id="XMLID_37_" class="st1" d="M368.7,108.2c0,0-390.3,100.1-243.4,377.3C125.3,485.4-61.1,239.9,368.7,108.2z"/>
			<path id="XMLID_36_" class="st1" d="M424.8,128.7c0,0,41.3,186.1-183.9,244C240.9,372.7,469,345.4,424.8,128.7z"/>
			<path id="XMLID_35_" class="st1" d="M150.9,459.3c0,0,6.2-110.8,126.9-137C277.8,322.3,157.2,322,150.9,459.3z"/>
			<path id="XMLID_34_" class="st1" d="M486.8,411.3c0,0,79-26,21.4-191.3C508.2,220,579.2,382.1,486.8,411.3z"/>
			<path id="XMLID_33_" class="st1" d="M394.5,459.3c0,0,138.6-124.1-58.4-196.4C336.2,262.9,549.8,313.8,394.5,459.3z"/>
			<path id="XMLID_32_" class="st1" d="M161.1,485.4c0,0,35.7-82.6,140.6-117.3C301.7,368.2,192.7,393.5,161.1,485.4z"/>
			<path id="XMLID_31_" class="st1" d="M437.7,380.4c0,0-46.7,48.4-122.5,15.8C315.2,396.2,376.5,440.2,437.7,380.4z"/>
			<path id="XMLID_30_" class="st1" d="M352.5,140.6c0,0,19,114.9-69.1,184.4C283.4,324.9,383.5,270.3,352.5,140.6z"/>
			<path id="XMLID_29_" class="st1" d="M288.8,90.4c0,0-118.2,84.9-56.4,217.4C232.4,307.7,159.9,179.5,288.8,90.4z"/>
			<path id="XMLID_28_" class="st1" d="M150.9,411.3c0,0-48.2-47.5-20.7-111.4C130.2,299.9,87.1,363.6,150.9,411.3z"/>
		</g>
	</g>
	<g id="XMLID_1_">
		<path id="XMLID_2_" d="M612.1,59.8h112.3c10.3,0,19.2,1.1,26.5,3.4c7.3,2.3,12.9,4.9,16.8,8c3.9,3.1,6.8,7.3,8.9,12.7
			c2.1,5.4,3.3,10.2,3.8,14.4c0.5,4.2,0.7,9.5,0.7,15.7c0,15.1-2.8,26.4-8.5,34c-5.6,7.6-15,12.3-28.2,14
			c27.1,1.7,40.6,19.3,40.6,52.8c0,6-0.1,11-0.4,14.8c-0.3,3.9-1,8.4-2.1,13.5c-1.1,5.2-3,9.4-5.6,12.6c-2.6,3.2-6,6.3-10.2,9.5
			c-4.1,3.1-9.7,5.4-16.6,6.8c-7,1.4-15,2.1-24.3,2.1H612.1V59.8z M646,88v62.9h72.5c10.9,0,18.5-2.3,22.9-6.9
			c4.3-4.6,6.5-12.3,6.5-23v-3.9c0-9.8-1.9-17.1-5.6-21.9c-3.8-4.8-11.6-7.2-23.4-7.2H646z M646,175.2v70.5h73.9
			c7.1,0,12.9-0.7,17.4-2.1c4.4-1.4,7.6-3.8,9.5-7.1c1.9-3.3,3.1-6.4,3.5-9.3c0.5-2.9,0.7-7.1,0.7-12.6v-7.6
			c0-11.5-2.5-19.7-7.5-24.5c-5-4.9-13.3-7.3-25-7.3H646z"/>
		<path id="XMLID_6_" d="M801.4,123.8h28.5v22c10.3-16.5,28.8-24.8,55.3-24.8c8.8,0,16.3,0.9,22.3,2.8v28.5
			c-6.4-3.8-15-5.6-25.7-5.6c-25.2,0-41.8,8.7-49.7,26.2v101h-30.8V123.8z"/>
		<path id="XMLID_8_" d="M942.8,165.9H914c0.2-10.2,1.5-18.2,4-24.1c2.4-5.9,6.7-10.4,12.7-13.5c6-3.1,12.6-5.1,19.9-5.9
			c7.2-0.8,17.3-1.3,30-1.3c27.3,0,45.8,3.2,55.7,9.7c9.9,6.5,14.8,20,14.8,40.5v75c0,11.7,0.8,20.9,2.5,27.6h-27.4
			c-1.7-5.1-2.5-10.6-2.5-16.6v-2.5c-8.7,14.5-28.6,21.7-59.8,21.7c-11.7,0-21.2-0.9-28.5-2.7c-7.3-1.8-13-4.7-16.9-8.9
			c-4-4.1-6.6-9-8-14.5c-1.4-5.5-2.1-12.8-2.1-21.9c0-12.8,1.6-22.6,4.8-29.3c3.2-6.8,9.2-11.8,17.9-15c8.7-3.2,21.5-4.8,38.2-4.8
			c22.8,0,39.8,3.7,51.1,11v-21.2c0-11.3-3-18.6-8.9-21.9c-5.9-3.3-16.5-4.9-31.7-4.9c-14.1,0-23.8,1.4-29.1,4.2
			C945.4,149.5,942.8,155.9,942.8,165.9z M939.1,225.1v3.7c0,8.8,2.3,15.2,6.8,19c4.5,3.9,13.7,5.8,27.6,5.8
			c23.9,0,39.5-5.3,46.8-15.8v-28.5c-9.4-7-23.8-10.4-43.2-10.4c-15.2,0-25.4,1.8-30.5,5.5C941.7,208.1,939.1,215,939.1,225.1z"/>
		<path id="XMLID_11_" d="M1070.2,73.8h28.5v38.4h-28.5V73.8z"/>
		<path id="XMLID_55_" d="M1070.2,123.8h28.5v21.7c11.3-16.4,31.2-24.5,59.8-24.5c22,0,36.6,3.2,43.7,9.5
			c7.1,6.3,10.7,16.6,10.7,30.9v112.6h-30.5V168.4c0-8.1-2.3-13.8-6.8-17.2s-13.8-5.1-27.9-5.1s-24.6,2.1-31.5,6.2
			c-6.9,4.1-12,9.9-15.4,17.2v104.4h-30.8V123.8z"/>
	</g>
	<g id="XMLID_52_">
		<path id="XMLID_57_" d="M613,456h17.5c-0.4,5.3-0.6,9.9-0.6,13.8c0,15.1,4.7,25.8,14,32.2c9.3,6.4,25.2,9.6,47.5,9.6
			c21.4,0,36.9-3.5,46.4-10.6c9.5-7.1,14.2-18.5,14.2-34.3c0-9.6-1.6-17.3-4.9-23c-3.3-5.7-8.8-10.3-16.5-13.7
			c-7.1-3-20.8-5.6-40.9-7.9c-7.3-0.7-13.1-1.4-17.2-2c-4.1-0.6-9.3-1.5-15.5-2.7c-6.2-1.2-11.1-2.6-14.5-4.2
			c-3.5-1.6-7.3-3.9-11.6-6.8c-4.2-2.9-7.4-6.2-9.6-9.9c-2.2-3.7-4-8.2-5.5-13.7c-1.5-5.5-2.3-11.7-2.3-18.6
			c0-21.4,6.3-36.3,18.8-44.7c12.5-8.4,33.2-12.6,61.9-12.6c25.2,0,43.5,3.7,55,11c11.5,7.3,17.2,21,17.2,40.9
			c0,5.5-0.3,10.2-0.8,14.1h-17.2c0.6-4,0.8-8.1,0.8-12.4c0-14.3-4.4-24.3-13.1-29.9c-8.7-5.6-22.9-8.5-42.5-8.5
			c-22,0-37.8,3.2-47.3,9.6c-9.5,6.4-14.2,17.4-14.2,33c0,11.7,2.4,20.5,7.2,26.5c4.8,6,12.2,10.2,22.1,12.4
			c5.3,1.3,18.1,2.9,38.4,4.7c20.3,1.8,35,4.7,44,8.6c18.1,7.7,27.1,24.1,27.1,49.1c0,21.8-6.2,37.4-18.5,46.7
			c-12.3,9.3-32.6,14-60.8,14c-28.2,0-48.5-4.1-60.9-12.4c-12.4-8.3-18.6-22.6-18.6-42.9C612.1,465.1,612.4,459.9,613,456z"/>
		<path id="XMLID_59_" d="M790.7,310.1h16.9v123.6H833l68.8-59.5h20.6l-74.8,64.3l77.6,85.8h-20.6l-71.4-80.1h-25.7v80.1h-16.9
			V310.1z"/>
		<path id="XMLID_61_" d="M997.2,371.3c11.1,0,20.6,0.7,28.6,2c8,1.3,14.5,3.6,19.6,6.8c5.1,3.2,9.1,6.5,12,9.9
			c2.9,3.4,5.1,8.3,6.5,14.7c1.4,6.4,2.3,12.2,2.7,17.4c0.4,5.2,0.6,12.4,0.6,21.6c0,4-0.1,6.8-0.3,8.5H943.6
			c0,6.6,0.1,11.7,0.3,15.4c0.2,3.7,0.6,8,1.3,13c0.7,5,1.7,8.8,3.1,11.6c1.4,2.7,3.4,5.6,5.9,8.7c2.5,3.1,5.7,5.4,9.6,6.9
			c3.9,1.5,8.6,2.8,14.1,3.8c5.5,1,12,1.6,19.3,1.6c14.5,0,25.6-1.5,33.4-4.5c7.8-3,12.9-7,15.2-12c2.4-5,3.6-11.9,3.8-20.7h16.4
			c-0.4,8.8-1.5,16.1-3.2,21.7c-1.8,5.6-5,10.9-9.7,15.7c-4.7,4.8-11.7,8.3-20.9,10.4c-9.2,2.2-20.9,3.2-35,3.2
			c-9.4,0-17.8-0.7-25.1-2c-7.3-1.3-13.5-3.1-18.5-5.2c-5-2.2-9.2-5.2-12.6-9.2c-3.4-4-6.1-7.8-8-11.6c-2-3.8-3.4-8.7-4.4-15
			c-0.9-6.2-1.6-11.8-1.8-16.9c-0.3-5.1-0.4-11.7-0.4-19.7c0-10.9,0.3-19.7,1-26.2c0.7-6.6,2.3-13.4,4.9-20.5
			c2.6-7.1,6.4-12.5,11.4-16.2c5-3.8,11.9-6.9,20.7-9.3C973.4,372.6,984.3,371.3,997.2,371.3z M997.5,385.2
			c-8.7,0-16.1,0.6-22.3,1.7c-6.2,1.1-11.2,3-15.1,5.6c-3.9,2.6-6.9,5.3-9.2,8c-2.3,2.7-3.9,6.6-4.9,11.6c-1,5-1.7,9.4-2,13.3
			c-0.3,3.9-0.4,9.3-0.4,16.2h107.2v-1.4c0-7.3-0.1-13-0.4-16.9c-0.3-4-0.9-8.4-2-13.3c-1-4.9-2.7-8.6-4.9-11.1
			c-2.3-2.5-5.3-5-9.2-7.3c-3.9-2.4-8.8-4-15-4.9C1013.3,385.6,1006,385.2,997.5,385.2z"/>
		<path id="XMLID_64_" d="M1094.9,316.9h16.9v57.3h47.7v12.7h-47.7v101.8c0,8.1,1.6,14.2,4.9,18.2c3.3,4,9.9,6.1,19.9,6.1
			c8.6,0,15.8-1.3,21.4-4v13.5c-6.4,2.8-14.6,4.2-24.5,4.2c-15,0-25.3-3.1-30.6-9.3c-5.4-6.2-8-15.9-8-29.1V386.8h-27.1v-12.7h27.1
			V316.9z"/>
		<path id="XMLID_66_" d="M1182.9,443v9.6c0,7.3,0.1,13.2,0.4,17.5c0.3,4.3,0.9,9.1,2,14.4c1,5.3,2.7,9.4,5.1,12.3
			c2.4,2.9,5.5,5.7,9.3,8.5c3.9,2.7,8.9,4.7,15.1,5.8c6.2,1.1,13.5,1.7,22,1.7c10.7,0,19.4-0.7,26.1-2.3c6.7-1.5,11.7-4,15.1-7.6
			c3.4-3.6,5.7-7.6,6.9-12.1c1.2-4.5,1.8-10.4,1.8-17.8h15.8c0,9.8-0.8,17.7-2.3,23.7c-1.5,6-4.5,11.5-9,16.5
			c-4.5,5-11.2,8.5-20,10.6c-8.8,2.1-20.3,3.1-34.4,3.1c-7.5,0-14.4-0.4-20.6-1.3c-6.2-0.8-11.6-1.9-16.2-3.1
			c-4.6-1.2-8.7-3.1-12.3-5.5c-3.6-2.4-6.5-4.8-8.9-7.2c-2.4-2.3-4.4-5.5-6.1-9.3c-1.7-3.9-3-7.4-3.9-10.7
			c-0.9-3.3-1.6-7.6-2.1-12.8c-0.5-5.3-0.8-9.9-0.8-14c-0.1-4-0.1-9.3-0.1-15.7c0-7.9,0.1-14.2,0.3-18.9c0.2-4.7,0.7-10.1,1.7-16.1
			c0.9-6,2.3-10.8,4.2-14.2c1.9-3.5,4.6-7.1,8-11c3.5-3.9,7.7-6.8,12.7-8.7c5-2,11.1-3.6,18.5-4.9c7.3-1.3,15.9-2,25.7-2
			c14.7,0,26.5,1.1,35.5,3.2c9,2.2,15.7,5.8,20,10.9c4.3,5.1,7.1,10.4,8.5,16.1c1.3,5.6,2,13.4,2,23.1H1287c0-7.5-0.5-13.4-1.6-17.5
			c-1-4.1-3.2-8-6.5-11.7c-3.3-3.7-8.3-6.3-15.1-7.8c-6.8-1.5-15.8-2.3-27.1-2.3c-7.3,0-13.8,0.5-19.5,1.4
			c-5.6,0.9-10.3,2.2-14.1,3.7c-3.8,1.5-7,3.7-9.6,6.6c-2.6,2.9-4.7,5.7-6.1,8.3c-1.4,2.6-2.4,6.3-3.1,10.9
			c-0.7,4.6-1.1,8.7-1.3,12.3C1183,432.2,1182.9,437,1182.9,443z"/>
		<path id="XMLID_68_" d="M1323.9,310.1h16.9v89.7c13-19,35.4-28.5,67.1-28.5c20.5,0,34.2,3.2,41,9.5c6.9,6.3,10.3,16.2,10.3,29.8
			v113.7h-16.6v-110c0-10-2.7-17.3-8-21.9c-5.4-4.6-16-6.9-32-6.9c-18.2,0-31.9,2.6-41.1,7.9c-9.1,5.3-16,12.3-20.7,21.2v109.7
			h-16.9V310.1z"/>
		<path id="XMLID_70_" d="M1549.4,371.3c11.1,0,20.6,0.7,28.6,2c8,1.3,14.5,3.6,19.6,6.8c5.1,3.2,9.1,6.5,12,9.9
			c2.9,3.4,5.1,8.3,6.5,14.7c1.4,6.4,2.3,12.2,2.7,17.4c0.4,5.2,0.6,12.4,0.6,21.6c0,4-0.1,6.8-0.3,8.5h-123.3
			c0,6.6,0.1,11.7,0.3,15.4c0.2,3.7,0.6,8,1.3,13c0.7,5,1.7,8.8,3.1,11.6c1.4,2.7,3.4,5.6,5.9,8.7c2.5,3.1,5.7,5.4,9.6,6.9
			c3.9,1.5,8.6,2.8,14.1,3.8c5.5,1,12,1.6,19.3,1.6c14.5,0,25.6-1.5,33.4-4.5c7.8-3,12.9-7,15.2-12c2.4-5,3.6-11.9,3.8-20.7h16.4
			c-0.4,8.8-1.5,16.1-3.2,21.7c-1.8,5.6-5,10.9-9.7,15.7c-4.7,4.8-11.7,8.3-20.9,10.4c-9.2,2.2-20.9,3.2-35,3.2
			c-9.4,0-17.8-0.7-25.1-2c-7.3-1.3-13.5-3.1-18.5-5.2c-5-2.2-9.2-5.2-12.6-9.2c-3.4-4-6.1-7.8-8-11.6c-2-3.8-3.4-8.7-4.4-15
			c-0.9-6.2-1.6-11.8-1.8-16.9c-0.3-5.1-0.4-11.7-0.4-19.7c0-10.9,0.3-19.7,1-26.2c0.7-6.6,2.3-13.4,4.9-20.5
			c2.6-7.1,6.4-12.5,11.4-16.2c5-3.8,11.9-6.9,20.7-9.3C1525.5,372.6,1536.4,371.3,1549.4,371.3z M1549.7,385.2
			c-8.7,0-16.1,0.6-22.3,1.7c-6.2,1.1-11.2,3-15.1,5.6c-3.9,2.6-6.9,5.3-9.2,8c-2.3,2.7-3.9,6.6-4.9,11.6c-1,5-1.7,9.4-2,13.3
			c-0.3,3.9-0.4,9.3-0.4,16.2H1603v-1.4c0-7.3-0.1-13-0.4-16.9c-0.3-4-0.9-8.4-2-13.3c-1-4.9-2.7-8.6-4.9-11.1
			c-2.3-2.5-5.3-5-9.2-7.3c-3.9-2.4-8.8-4-15-4.9C1565.4,385.6,1558.1,385.2,1549.7,385.2z"/>
		<path id="XMLID_73_" d="M1640.5,374.2h15.8v27.1c12-19.9,32.8-29.9,62.4-29.9c9,0,17,1.2,24,3.7v15.8c-6.6-3.4-15-5.1-25.4-5.1
			c-28.8,0-48.7,10.5-59.8,31.6v106.9h-16.9V374.2z"/>
		<path id="XMLID_75_" d="M1748.3,477.4h15.5c-0.2,1.7-0.3,4.6-0.3,8.7c0,11.1,4.1,18.6,12.4,22.6c8.3,4,20.9,5.9,37.8,5.9
			c16.7,0,28.8-2.1,36.3-6.3c7.4-4.2,11.1-12.5,11.1-24.7c0-10.5-3.7-17.6-11-21.2c-7.3-3.6-20.8-6.3-40.3-8.2
			c-23.3-2.3-39.5-6-48.7-11.1c-9.1-5.2-13.7-14.9-13.7-29.2c0-16.5,5.3-27.8,15.8-33.7c10.5-5.9,26.8-8.9,48.8-8.9
			c21.1,0,36.3,2.6,45.7,7.8c9.4,5.2,14.1,15.5,14.1,30.9c0,3.4-0.1,5.7-0.3,7.1h-15.2c0.2-1.3,0.3-3.3,0.3-5.9
			c-0.4-11.5-3.9-19-10.6-22.6c-6.7-3.6-18.2-5.4-34.6-5.4c-16.6,0-28.7,2-36.5,5.9c-7.8,4-11.7,11.6-11.7,22.9
			c0,4.9,0.9,9,2.7,12.3c1.8,3.3,3.9,5.9,6.3,7.9c2.4,2,6.4,3.7,11.8,5.1c5.5,1.4,10.2,2.4,14.4,2.8c4.1,0.5,10.4,1.2,18.9,2.1
			c22,2.3,37.3,6.1,45.8,11.4c8.6,5.4,12.8,14.9,12.8,28.6c0,17.3-4.8,29.1-14.5,35.3c-9.7,6.2-25.7,9.3-48.1,9.3
			c-21.8,0-38.2-2.7-49.1-8c-10.9-5.4-16.5-15.9-16.6-31.7C1747.7,484.4,1747.9,481.2,1748.3,477.4z"/>
	</g>
</g>
<g id="XMLID_155_">
</g>
<g id="XMLID_156_">
</g>
<g id="XMLID_157_">
</g>
<g id="XMLID_158_">
</g>
<g id="XMLID_159_">
</g>
<g id="XMLID_160_">
</g>
<g id="XMLID_161_">
</g>
<g id="XMLID_162_">
</g>
<g id="XMLID_163_">
</g>
<g id="XMLID_164_">
</g>
<g id="XMLID_165_">
</g>
<g id="XMLID_166_">
</g>
<g id="XMLID_167_">
</g>
<g id="XMLID_168_">
</g>
<g id="XMLID_169_">
</g>
</svg>
